# xmcd CD database file
#
# Track frame offsets:
#	150
#	13339
#	33876
#	39951
#	55506
#	69742
#	83231
#	99406
#	105592
#	124094
#	144345
#	168311
#	184486
#	200604
#
# Disc length: 2856 seconds
#
# Revision: 1
# Processed by: cddbd v1.5.2PL0 Copyright (c) Steve Scherf et al.
# Submitted via: CDex 1.51
#
DISCID=b90b260e
DTITLE=Rodrigo Leão - O Mundo [1993-2006]
DYEAR=2006
DGENRE=Jazz
TTITLE0=Rua da Atalaia
TTITLE1=Voltar
TTITLE2=À Espera de Sofia
TTITLE3=Solitude
TTITLE4=Noche
TTITLE5=Tardes de Bolonha
TTITLE6=Pasión
TTITLE7=A Cidade Queimada
TTITLE8=Rosa
TTITLE9=A Janela
TTITLE10=A Casa
TTITLE11=Memórias
TTITLE12=Lonely Carousel
TTITLE13=La Fête
EXTD=YEAR: 2006
EXTT0=
EXTT1=
EXTT2=
EXTT3=
EXTT4=
EXTT5=
EXTT6=
EXTT7=
EXTT8=
EXTT9=
EXTT10=
EXTT11=
EXTT12=
EXTT13=
PLAYORDER=
